<svg version="1.1" xmlns="http://www.w3.org/2000/svg" xmlns:xlink="http://www.w3.org/1999/xlink" width="66.5" height="66.5" viewBox="0,0,66.5,66.5"><g transform="translate(-286.75,-146.75)"><g data-paper-data="{&quot;isPaintingLayer&quot;:true}" fill-rule="nonzero" stroke-linejoin="miter" stroke-miterlimit="10" stroke-dasharray="" stroke-dashoffset="0" style="mix-blend-mode: normal"><path d="M295,209c-2.20914,0 -4,-1.79086 -4,-4v-50c0,-2.20914 1.79086,-4 4,-4h50c2.20914,0 4,1.79086 4,4v50c0,2.20914 -1.79086,4 -4,4z" fill="#aa8dd8" stroke="#9165d9" stroke-width="8.5" stroke-linecap="butt"/><path d="M320,176.625v19.75" fill="none" stroke="#ffffff" stroke-width="11" stroke-linecap="round"/><path d="M314.5,163c0,-3.03757 2.46243,-5.5 5.5,-5.5c3.03757,0 5.5,2.46243 5.5,5.5c0,3.03757 -2.46243,5.5 -5.5,5.5c-3.03757,0 -5.5,-2.46243 -5.5,-5.5z" fill="#ffffff" stroke="none" stroke-width="0.5" stroke-linecap="butt"/></g></g></svg>