<svg version="1.1" xmlns="http://www.w3.org/2000/svg" xmlns:xlink="http://www.w3.org/1999/xlink" width="76.2746" height="66.435" viewBox="0,0,76.2746,66.435"><g transform="translate(-281.8627,-146.7825)"><g data-paper-data="{&quot;isPaintingLayer&quot;:true}" fill-rule="nonzero" stroke-linecap="butt" stroke-linejoin="miter" stroke-miterlimit="10" stroke-dasharray="" stroke-dashoffset="0" style="mix-blend-mode: normal"><g><path d="M299.2293,163.4015c2.0771,-6.2972 0.8599,-10.4953 -2.0771,-10.4953c-2.077,0 0,-8.3964 4.1542,-4.1982c4.1541,4.1982 0,12.5945 0,20.9908c0,2.097 -4.1542,0 -2.0771,-6.2973zM291.1806,163.4015c2.0771,-6.2972 0.86,-10.4953 -2.077,-10.4953c-2.0771,0 0,-8.3964 4.1541,-4.1982c4.1542,4.1982 0,12.5945 0,20.9908c0,2.097 -4.1541,0 -2.0771,-6.2973z" fill="#9266cc" stroke="#ffffff" stroke-width="1.5"/><path d="M357.3873,210.3684c0,2.0991 -2.0771,2.0991 -4.1541,2.0991h-47.7727c-10.3854,0 -15.1045,-6.4862 -16.6166,-12.5945c-2.077,-8.3963 4.1542,-23.0898 0,-25.1889c-4.1541,-2.0991 -6.2312,-2.0991 -6.2312,-6.2973c0,-4.1981 9.2845,-11.0516 14.5395,-8.3963c8.3083,4.1982 5.7473,14.5508 4.1542,20.9908c-1.8279,7.393 2.3159,7.5441 10.3853,10.4954c10.2608,3.7511 25.5895,9.3199 29.079,10.4954c6.2312,2.0991 16.6166,6.2972 16.6166,8.3963z" fill="#aa8dd8" stroke="#ffffff" stroke-width="1.5"/><path d="M327.2905,164.1866c13.2455,0 23.984,9.3976 23.984,20.9908c0,11.589 -4.742,23.0898 -17.9875,23.0898c-19.9876,0 -21.9858,-16.7926 -27.9823,-18.8917c-1.8963,-0.6633 8.7403,-25.1868 21.9858,-25.1889z" fill="#ffcc4d" stroke="none" stroke-width="1"/><path d="M329.513,207.6459c-4.3162,-1.1314 -7.951,-3.9609 -10.242,-7.9702c-2.289,-4.0071 -2.9536,-8.7091 -1.8756,-13.2389c0.9159,-3.8455 3.2007,-7.0865 6.4347,-9.1247c3.2361,-2.0424 7.033,-2.6343 10.6928,-1.6729c3.2257,0.8501 5.768,3.4068 6.9748,7.0256c1.1985,3.5831 0.1703,6.8094 -2.2183,8.814c-2.6649,2.2355 -7.5585,1.6394 -5.9965,0c1.9981,-2.0991 1.9981,-6.2972 -0.6979,-7.6931c-1.4685,-0.7599 -3.2361,-0.1595 -4.6402,0.7242c-1.4041,0.8858 -2.3969,2.2922 -2.7916,3.9609c-0.5629,2.3573 -0.2139,4.8006 0.9742,6.8871c1.1901,2.0844 3.0823,3.5558 5.3256,4.1415c3.0637,0.8081 6.2437,0.3065 8.9542,-1.398c2.7085,-1.7065 4.6215,-4.4207 5.388,-7.6385c2.1103,-8.8645 -3.043,-17.88 -11.4821,-20.0966c-11.0895,-2.9093 -22.3618,4.1939 -25.1326,15.8354c-0.5379,2.2502 -2.7168,3.623 -4.8499,3.0542c-2.1394,-0.5626 -3.4417,-2.8422 -2.9059,-5.0924c3.8405,-16.1356 19.4726,-25.9824 34.8284,-21.9459c12.7179,3.3397 20.4778,16.9228 17.2999,30.2793c-1.2857,5.3967 -4.4927,9.9433 -9.0311,12.8001c-3.1218,1.969 -6.6134,2.9765 -10.161,2.9765c-1.6118,0 -3.2382,-0.2099 -4.8479,-0.6276z" fill="#ffac33" stroke="#ffffff" stroke-width="1.5"/></g></g></g></svg>