<svg version="1.1" xmlns="http://www.w3.org/2000/svg" xmlns:xlink="http://www.w3.org/1999/xlink" width="621.5" height="338.5" viewBox="0,0,621.5,338.5"><g transform="translate(-9.25,-10.75)"><g data-paper-data="{&quot;isPaintingLayer&quot;:true}" fill-rule="nonzero" stroke-linecap="butt" stroke-linejoin="miter" stroke-miterlimit="10" stroke-dasharray="" stroke-dashoffset="0" style="mix-blend-mode: normal"><path d="M17.5,345c-2.20914,0 -4,-1.79086 -4,-4v-322c0,-2.20914 1.79086,-4 4,-4h605c2.20914,0 4,1.79086 4,4v322c0,2.20914 -1.79086,4 -4,4z" fill="#aa8dd8" stroke="#9165d9" stroke-width="8.5"/><text transform="translate(250.42003,48.5) scale(0.5,0.5)" font-size="40" xml:space="preserve" fill="#ffffff" fill-rule="nonzero" stroke="none" stroke-width="1" stroke-linecap="butt" stroke-linejoin="miter" stroke-miterlimit="10" stroke-dasharray="" stroke-dashoffset="0" font-family="Playful" font-weight="normal" text-anchor="start" style="mix-blend-mode: normal"><tspan x="0" dy="0">Server Settings</tspan></text><path d="M38.45192,324.5c-2.18259,0 -3.95192,-1.79086 -3.95192,-4v-248c0,-2.20914 1.76934,-4 3.95192,-4h197.59615c2.18259,0 3.95192,1.79086 3.95192,4v248c0,2.20914 -1.76934,4 -3.95192,4z" fill="#aa8dd8" stroke="#9165d9" stroke-width="8.5"/><text transform="translate(48.43005,200.98198) scale(0.38847,0.38847)" font-size="40" xml:space="preserve" fill="#ffffff" fill-rule="nonzero" stroke="none" stroke-width="1" stroke-linecap="butt" stroke-linejoin="miter" stroke-miterlimit="10" stroke-dasharray="" stroke-dashoffset="0" font-family="Playful" font-weight="normal" text-anchor="start" style="mix-blend-mode: normal"><tspan x="0" dy="0">Github Server is disabled</tspan></text><text transform="translate(301.23123,203.82184) scale(0.5,0.5)" font-size="40" xml:space="preserve" fill="#ffffff" fill-rule="nonzero" stroke="none" stroke-width="1" stroke-linecap="butt" stroke-linejoin="miter" stroke-miterlimit="10" stroke-dasharray="" stroke-dashoffset="0" font-family="Playful" font-weight="normal" text-anchor="start" style="mix-blend-mode: normal"><tspan x="0" dy="0">Uses Snap Server Data extension</tspan><tspan x="0" dy="48px">(Less Secure,  Faster, Stable)</tspan></text><path d="M109.5,320.52387v-46.15h126.5v46.15z" fill="#aa8dd8" stroke="none" stroke-width="0"/><path d="M216.79847,324.5c-1.60983,0 -2.91485,-1.79086 -2.91485,-4v-79.5c0,-2.20914 1.30502,-4 2.91485,-4h284.56219c1.60983,0 2.91485,1.79086 2.91485,4v79.5c0,2.20914 -1.30502,4 -2.91485,4z" fill="#aa8dd8" stroke="#9165d9" stroke-width="8.5"/><path d="M177.38362,320.52387v-92.52387h58.61638v92.52387z" fill="#aa8dd8" stroke="none" stroke-width="0"/></g></g></svg>