<svg version="1.1" xmlns="http://www.w3.org/2000/svg" xmlns:xlink="http://www.w3.org/1999/xlink" width="66.5" height="66.5" viewBox="0,0,66.5,66.5"><g transform="translate(-286.75,-146.75)"><g data-paper-data="{&quot;isPaintingLayer&quot;:true}" fill-rule="nonzero" stroke-miterlimit="10" stroke-dasharray="" stroke-dashoffset="0" style="mix-blend-mode: normal"><path d="M295,209c-2.20914,0 -4,-1.79086 -4,-4v-50c0,-2.20914 1.79086,-4 4,-4h50c2.20914,0 4,1.79086 4,4v50c0,2.20914 -1.79086,4 -4,4z" fill="#aa8dd8" stroke="#9165d9" stroke-width="8.5" stroke-linecap="butt" stroke-linejoin="miter"/><path d="M332.25918,169.80101h-0.0204M326.13979,169.80101h-0.0204M332.25918,190.19899h-0.0204M326.13979,190.19899h-0.0204M304.16021,175.60986c-0.9996,-0.41406 -1.7938,-1.20825 -2.20786,-2.20786c-0.31054,-0.74973 -0.31054,-1.70015 -0.31054,-3.601c0,-1.90085 0,-2.85127 0.31054,-3.601c0.41406,-0.9996 1.20825,-1.7938 2.20786,-2.20786c0.74973,-0.31054 1.70015,-0.31054 3.601,-0.31054h24.47757c1.90089,0 2.85123,0 3.60106,0.31054c0.9995,0.41406 1.7938,1.20825 2.20788,2.20786c0.31046,0.74973 0.31046,1.70015 0.31046,3.601c0,1.90085 0,2.85127 -0.31046,3.601c-0.41408,0.9996 -1.20838,1.7938 -2.20788,2.20786c-0.74983,0.31054 -1.70017,0.31054 -3.60106,0.31054h-24.47757c-1.90085,0 -2.85127,0 -3.601,-0.31054zM304.16021,196.00793c-0.9996,-0.41408 -1.7938,-1.20838 -2.20786,-2.20788c-0.31054,-0.74983 -0.31054,-1.70017 -0.31054,-3.60106c0,-1.90089 0,-2.85123 0.31054,-3.60106c0.41406,-0.9995 1.20825,-1.7938 2.20786,-2.20788c0.74973,-0.31046 1.70015,-0.31046 3.601,-0.31046h24.47757c1.90089,0 2.85123,0 3.60106,0.31046c0.9995,0.41408 1.7938,1.20838 2.20788,2.20788c0.31046,0.74983 0.31046,1.70017 0.31046,3.60106c0,1.90089 0,2.85123 -0.31046,3.60106c-0.41408,0.9995 -1.20838,1.7938 -2.20788,2.20788c-0.74983,0.31046 -1.70017,0.31046 -3.60106,0.31046h-24.47757c-1.90085,0 -2.85127,0 -3.601,-0.31046z" fill="none" stroke="#ffffff" stroke-width="3.5" stroke-linecap="round" stroke-linejoin="round"/></g></g></svg>