<svg version="1.1" xmlns="http://www.w3.org/2000/svg" xmlns:xlink="http://www.w3.org/1999/xlink" width="108.36971" height="75.9022" viewBox="0,0,108.36971,75.9022"><g transform="translate(-185.81514,-142.0489)"><g data-paper-data="{&quot;isPaintingLayer&quot;:true}" fill-rule="nonzero" stroke-linejoin="miter" stroke-miterlimit="10" stroke-dasharray="" stroke-dashoffset="0" style="mix-blend-mode: normal"><path d="M193.59809,216.9511c-2.20914,0 -4,-1.79086 -4,-4v-42.0927c0,-2.20914 1.79086,-4 4,-4h95.58677c2.20914,0 4,1.79086 4,4v42.0927c0,2.20914 -1.79086,4 -4,4z" fill="#732cff" stroke="#000000" stroke-width="2" stroke-linecap="butt"/><path d="M232.38807,182.87945c0.97764,-2.96401 0.40475,-4.94001 -0.97764,-4.94001c-0.97764,0 0,-3.95201 1.95529,-1.97601c1.95529,1.97601 0,5.92801 0,9.88002c0,0.98701 -1.95529,0 -0.97764,-2.96401zM228.5997,182.87945c0.97764,-2.96401 0.40475,-4.94001 -0.97764,-4.94001c-0.97764,0 0,-3.95201 1.95529,-1.97601c1.95529,1.97601 0,5.92801 0,9.88002c0,0.98701 -1.95529,0 -0.97764,-2.96401z" fill="#9266cc" stroke="none" stroke-width="1" stroke-linecap="butt"/><path d="M259.76209,204.98599c0,0.988 -0.97764,0.988 -1.95529,0.988h-22.48582c-4.88822,0 -7.10943,-3.05292 -7.82115,-5.92801c-0.97764,-3.95201 1.95529,-10.86802 0,-11.85602c-1.95529,-0.988 -2.93293,-0.988 -2.93293,-2.96401c0,-1.97601 4.37007,-5.20183 6.84351,-3.95201c3.91058,1.97601 2.70514,6.84883 1.95529,9.88002c-0.86033,3.47975 1.09008,3.55088 4.88822,4.94001c4.82956,1.76556 12.04457,4.38673 13.68701,4.94001c2.93293,0.988 7.82115,2.96401 7.82115,3.95201z" fill="#aa8dd8" stroke="none" stroke-width="1" stroke-linecap="butt"/><path d="M245.59604,183.24896c6.23444,0 11.28886,4.42329 11.28886,9.88002c0,5.45476 -2.23196,10.86802 -8.4664,10.86802c-9.40787,0 -10.34836,-7.90402 -13.17082,-8.89202c-0.89259,-0.31221 4.11393,-11.85504 10.34836,-11.85602z" fill="#ffcc4d" stroke="none" stroke-width="1" stroke-linecap="butt"/><path d="M246.64212,203.70456c-2.03155,-0.53253 -3.74242,-1.86436 -4.82076,-3.75144c-1.07736,-1.8861 -1.39021,-4.09922 -0.88281,-6.23133c0.43114,-1.81002 1.50655,-3.3355 3.02874,-4.29485c1.52317,-0.96132 3.3103,-1.23994 5.03291,-0.78744c1.51828,0.40014 2.71492,1.60353 3.28293,3.30684c0.5641,1.68652 0.08017,3.20508 -1.04412,4.14862c-1.25432,1.05222 -3.55765,0.77163 -2.82246,0c0.94049,-0.988 0.94049,-2.96401 -0.32849,-3.62103c-0.69119,-0.35766 -1.52317,-0.07509 -2.18406,0.34086c-0.66089,0.41694 -1.1282,1.0789 -1.31396,1.86436c-0.26494,1.10953 -0.1007,2.25956 0.45852,3.24164c0.56019,0.98109 1.45083,1.67368 2.50668,1.94933c1.44202,0.38038 2.9388,0.14425 4.21462,-0.65801c1.27485,-0.80325 2.17526,-2.08073 2.53601,-3.59534c0.99329,-4.17233 -1.43225,-8.4158 -5.40442,-9.45913c-5.21964,-1.36937 -10.52531,1.97403 -11.82949,7.45349c-0.25321,1.05914 -1.27876,1.70529 -2.2828,1.43754c-1.00697,-0.26478 -1.61996,-1.33775 -1.36772,-2.39689c1.80767,-7.59477 9.16541,-12.22949 16.39314,-10.32956c5.98611,1.57191 9.63859,7.96527 8.1428,14.25193c-0.60516,2.54015 -2.11465,4.68017 -4.2508,6.02484c-1.4694,0.92675 -3.11282,1.40099 -4.78264,1.40099c-0.75865,0 -1.52415,-0.0988 -2.28182,-0.29541z" fill="#ffac33" stroke="none" stroke-width="1" stroke-linecap="butt"/><path d="M186.81515,144.59497l14.84229,21.64499" fill="none" stroke="#000000" stroke-width="2" stroke-linecap="round"/><path d="M277.72413,166.23996l12.05936,-23.19106" fill="none" stroke="#000000" stroke-width="2" stroke-linecap="round"/><path d="M272.13199,192.83239c0,-1.38071 1.11929,-2.5 2.5,-2.5c1.38071,0 2.5,1.11929 2.5,2.5c0,1.38071 -1.11929,2.5 -2.5,2.5c-1.38071,0 -2.5,-1.11929 -2.5,-2.5z" fill="#33ff2b" stroke="none" stroke-width="0.5" stroke-linecap="butt"/></g></g></svg>